# AST/ASF file generated using VICON BodyLanguage
# -----------------------------------------------
:version 1.10
:name VICON
:units
  mass 1.0
  length 0.45
  angle deg
:documentation
   .ast/.asf automatically generated from VICON data using
   VICON BodyBuilder and BodyLanguage model FoxedUp or BRILLIANT.MOD
:root
   order TX TY TZ RX RY RZ
   axis XYZ
   position 0 0 0  
   orientation 0 0 0 
:bonedata
  begin
     id 1 
     name lhipjoint
     direction 0.537252 -0.787203 0.302774 
     length 2.29576 
     axis 0 0 0  XYZ
  end
  begin
     id 2 
     name lfemur
     direction 0.34202 -0.939693 0  
     length 7.31114  
     axis 0 0 20  XYZ
    dof rx ry rz
    limits (-160.0 20.0)
           (-70.0 70.0)
           (-60.0 70.0)
  end
  begin
     id 3 
     name ltibia
     direction 0.34202 -0.939693 0   
     length 8.36008   
     axis 0 0 20   XYZ
    dof rx
    limits (-10.0 170.0)
  end
  begin
     id 4 
     name lfoot
     direction 0.0969116 -0.266263 0.959016   
     length 2.16704   
     axis -90 7.62852e-016 20   XYZ
    dof rx rz
    limits (-45.0 90.0)
           (-70.0 20.0)
  end
  begin
     id 5 
     name ltoes
     direction 1.53563e-011 -4.21779e-011 1   
     length 1.08338   
     axis -90 7.62852e-016 20   XYZ
    dof rx
    limits (-90.0 20.0)
  end
  begin
     id 6 
     name rhipjoint
     direction -0.588228 -0.754791 0.290308   
     length 2.39434  
     axis 0 0 0  XYZ 
  end
  begin
     id 7 
     name rfemur
     direction -0.34202 -0.939693 0   
     length 7.45207   
     axis 0 0 -20   XYZ
    dof rx ry rz
    limits (-160.0 20.0)
           (-70.0 70.0)
           (-70.0 60.0)
  end
  begin
     id 8 
     name rtibia
     direction -0.34202 -0.939693 0   
     length 8.03565   
     axis 0 0 -20   XYZ
    dof rx
    limits (-10.0 170.0)
 end
 begin
     id 9 
     name rfoot
     direction -0.107009 -0.294004 0.949795   
     length 2.11509  
     axis -90 -7.62852e-016 -20   XYZ
    dof rx rz
    limits (-45.0 90.0)
           (-20.0 70.0)
  end
  begin
     id 10 
     name rtoes
     direction -1.53533e-011 -4.22004e-011 1   
     length 1.05493   
     axis -90 -7.62852e-016 -20   XYZ
    dof rx
    limits (-90.0 20.0)
  end
  begin
     id 11 
     name lowerback
     direction -0.0115208 0.997969 -0.0626515   
     length 2.03153   
     axis 0 0 0   XYZ
    dof rx ry rz
    limits (-20.0 45.0)
           (-30.0 30.0)
           (-30.0 30.0)
  end
  begin
     id 12 
     name upperback
     direction -0.00423475 0.999974 -0.00583614   
     length 2.03619   
     axis 0 0 0   XYZ
    dof rx ry rz
    limits (-20.0 45.0)
           (-30.0 30.0)
           (-30.0 30.0)
  end
  begin
     id 13 
     name thorax
     direction 0.00289429 0.999728 0.0231573   
     length 2.03921   
     axis 0 0 0   XYZ
    dof rx ry rz
    limits (-20.0 45.0)
           (-30.0 30.0)
           (-30.0 30.0)
  end
  begin
     id 14 
     name lowerneck
     direction 0.0188995 0.987777 0.154721   
     length 1.78836   
     axis 0 0 0   XYZ
    dof rx ry rz
    limits (-20.0 45.0)
           (-30.0 30.0)
           (-30.0 30.0)
  end
  begin
     id 15 
     name upperneck
     direction -0.00612612 0.992995 -0.118   
     length 1.81789   
     axis 0 0 0   XYZ
    dof rx ry rz
    limits (-20.0 45.0)
           (-30.0 30.0)
           (-30.0 30.0)
  end
  begin
     id 16
     name head
     direction -0.00420226 0.998397 -0.0564482  
     length 1.82234  
     axis 0 0 0   XYZ
    dof rx ry rz
    limits (-20.0 45.0)
           (-30.0 30.0)
           (-30.0 30.0)
  end
  begin
     id 17 
     name lclavicle
     direction 0.916488 0.396539 0.0529676  
     length 3.51732  
     axis 0 0 0   XYZ
    dof ry rz
    limits (-20.0 10.0)
           (0.0 20.0)
  end
  begin
     id 18 
     name lhumerus
     direction 1 -4.4896e-011 8.36962e-028   
     length 5.45077   
     axis 180 -30 -90   XYZ
    dof rx ry rz
    limits (-60.0 90.0)
           (-90.0 90.0)
           (-90.0 90.0)
  end
  begin
     id 19
     name lradius
     direction 1 -4.48962e-011 3.01407e-027   
     length 3.05488   
     axis 180 -30 -90   XYZ
    dof rx
    limits (-10.0 170.0)
  end
  begin
     id 20
     name lwrist
     direction 1 -4.49002e-011 4.72961e-027   
     length 1.52744   
     axis -2.72261e-015 90 90   XYZ
    dof ry
    limits (-180.0 0.0)
 end
  begin
     id 21 
     name lhand
     direction 1 -4.4899e-011 9.45681e-027   
     length 0.638818   
     axis -6.0311e-015 90 90   XYZ
    dof rx rz
    limits (-90.0 90.0)
           (-45.0 45.0)
  end
  begin
     id 22 
     name lfingers
     direction 1 -4.48871e-011 1.88632e-026   
     length 0.515032   
     axis -1.20625e-014 90 90   XYZ
    dof rx
    limits (0.0 90.0)
  end
  begin
     id 23
     name lthumb
     direction 0.707107 -6.34964e-011 0.707107   
     length 0.739485   
     axis -90 45 6.32835e-014   XYZ
    dof rx rz
    limits (-45.0 45.0)
           (-45.0 45.0)
  end
  begin
     id 24 
     name rclavicle
     direction -0.949427 0.303202 0.0815894   
     length 3.76167  
     axis 0 0 0   XYZ 
    dof ry rz
    limits (-10.0 20.0)
           (-20.0 0.0)
  end
  begin
     id 25 
     name rhumerus
     direction -1 -4.48971e-011 -6.43969e-018  
     length 4.88702   
     axis 180 30 90   XYZ
    dof rx ry rz
    limits (-90.0 60.0)
           (-90.0 90.0)
           (-90.0 90.0)
  end
  begin
     id 26 
     name rradius
     direction -1 -4.48987e-011 5.46662e-027   
     length 3.22603   
     axis 180 30 90   XYZ
    dof rx
    limits (-10.0 170.0)
  end
  begin
     id 27 
     name rwrist
     direction -1 -4.48956e-011 4.72476e-027   
     length 1.61302   
     axis -2.72261e-015 -90 -90   XYZ
    dof ry
    limits (-180.0 0.0)
  end
  begin
     id 28
     name rhand
     direction -1 -4.4889e-011 9.43571e-027   
     length 0.716293   
     axis -6.0311e-015 -90 -90   XYZ
    dof rx rz
    limits (-90.0 90.0)
           (-45.0 45.0)
  end
  begin
     id 29
     name rfingers
     direction -1 -4.48887e-011 1.88701e-026   
     length 0.577494   
     axis -1.20625e-014 -90 -90   XYZ
    dof rx
    limits (0.0 90.0)
  end
  begin
     id 30
     name rthumb
     direction -0.707107 -6.34825e-011 0.707107   
     length 0.829169   
     axis -90 -45 -6.32835e-014   XYZ
    dof rx rz
    limits (-45.0 45.0)
           (-45.0 45.0)
  end
:hierarchy
  begin
    root lhipjoint rhipjoint lowerback
    lhipjoint lfemur
    lfemur ltibia
    ltibia lfoot
    lfoot ltoes
    rhipjoint rfemur
    rfemur rtibia
    rtibia rfoot
    rfoot rtoes
    lowerback upperback
    upperback thorax
    thorax lowerneck lclavicle rclavicle
    lowerneck upperneck
    upperneck head
    lclavicle lhumerus
    lhumerus lradius
    lradius lwrist
    lwrist lhand lthumb
    lhand lfingers
    rclavicle rhumerus
    rhumerus rradius
    rradius rwrist
    rwrist rhand rthumb
    rhand rfingers
  end

#!OML:ASF F:\VICON\USERDATA\INSTALL\rory3\rory3.ASF
:FULLY-SPECIFIED
:DEGREES
2272
root 1.49026 18.503 0.884372 -169.862 56.4875 -181.82
lowerback -8.59836 2.36743 1.14797
upperback -3.29313 3.22344 -1.11402
thorax 1.53127 1.66174 -1.47415
lowerneck -18.299 4.2397 5.11615
upperneck 24.13 5.19991 -1.19617
head 11.0015 2.85025 -0.486027
rclavicle -7.35387e-014 -1.85615e-014
rhumerus -53.0413 24.5407 -101.116
rradius 63.7923
rwrist -11.6514
rhand -47.1948 19.3182
rfingers 7.12502
rthumb -19.8946 -9.68346
lclavicle -7.35387e-014 -1.85615e-014
lhumerus -18.0673 -19.2209 78.7435
lradius 115.696
lwrist 38.6566
lhand -23.8019 20.9917
lfingers 7.12502
lthumb 2.66865 50.9548
rfemur -2.65819 -37.522 23.4626
rtibia -7.95139e-015
rfoot -8.17809 6.75242
rtoes -4.80741
lfemur -22.3353 -2.0198 -14.6806
ltibia 17.5023
lfoot -4.71751 -23.0887
ltoes -17.873
2273
root 1.49599 18.5063 0.890705 -170.022 56.4353 -181.886
lowerback -8.57105 2.35685 0.986002
upperback -3.26195 3.22031 -1.08584
thorax 1.53825 1.66041 -1.35528
lowerneck -18.289 4.18267 5.19507
upperneck 24.1557 5.11753 -1.26681
head 11.0108 2.81243 -0.536899
rclavicle 4.05008e-014 -4.44781e-015
rhumerus -51.4428 23.849 -100.367
rradius 64.2844
rwrist -11.0259
rhand -46.7373 18.5998
rfingers 7.12502
rthumb -19.4547 -10.4469
lclavicle 4.05008e-014 -4.44781e-015
lhumerus -19.7132 -19.995 79.7231
lradius 114.343
lwrist 37.9913
lhand -23.9839 21.1772
lfingers 7.12502
lthumb 2.49288 51.1424
rfemur -2.48819 -37.5859 23.3568
rtibia 1.59028e-015
rfoot -8.19116 6.76032
rtoes -4.54756
lfemur -22.246 -2.18244 -14.6481
ltibia 17.6517
lfoot -5.01786 -22.9812
ltoes -18.3752
2274
root 1.49079 18.5113 0.898995 -169.974 56.4301 -181.858
lowerback -8.54669 2.36013 0.989508
upperback -3.2839 3.22531 -1.08245
thorax 1.5023 1.66303 -1.35495
lowerneck -18.3775 4.13509 5.25266
upperneck 24.2859 5.04336 -1.29762
head 11.0766 2.78202 -0.565479
rclavicle 1.62597e-013 1.45113e-014
rhumerus -49.9092 23.145 -99.6924
rradius 64.8761
rwrist -10.249
rhand -46.2067 18.1809
rfingers 7.12502
rthumb -18.9445 -10.9166
lclavicle 1.62597e-013 1.45113e-014
lhumerus -21.251 -20.6205 80.6375
lradius 112.996
lwrist 37.734
lhand -23.7686 21.468
lfingers 7.12502
lthumb 2.70085 51.4307
rfemur -2.56363 -37.5807 23.4391
rtibia 9.54166e-015
rfoot -8.15416 6.7151
rtoes -4.50278
lfemur -22.283 -2.30512 -14.5573
ltibia 17.7337
lfoot -5.19675 -22.8579
ltoes -18.6916
2275
root 1.47685 18.5134 0.907661 -169.737 56.6143 -181.823
lowerback -8.58709 2.44392 1.0428
upperback -3.4025 3.33933 -1.11267
thorax 1.41026 1.72149 -1.40597
lowerneck -18.5368 4.05955 5.27002
upperneck 24.5188 4.92055 -1.24436
head 11.1894 2.73816 -0.561918
rclavicle 1.32797e-013 1.41386e-014
rhumerus -48.5036 22.4221 -99.1259
rradius 65.6079
rwrist -9.68811
rhand -45.5046 18.0711
rfingers 7.12502
rthumb -18.2691 -11.091
lclavicle 1.32797e-013 1.41386e-014
lhumerus -22.7405 -21.2367 81.4738
lradius 111.594
lwrist 37.9133
lhand -23.0622 21.7692
lfingers 7.12502
lthumb 3.38305 51.7221
rfemur -2.96412 -37.373 23.6569
rtibia -4.77083e-015
rfoot -8.04275 6.7074
rtoes -4.36143
lfemur -22.4983 -2.49586 -14.4657
ltibia 17.6946
lfoot -5.27508 -22.3965
ltoes -18.9579
2276
root 1.47831 18.5107 0.914287 -169.844 56.8262 -181.8
lowerback -8.47505 2.54064 0.973699
upperback -3.37758 3.47127 -1.10794
thorax 1.37453 1.78653 -1.35399
lowerneck -18.6732 3.99242 5.27838
upperneck 24.6686 4.81115 -1.20552
head 11.2677 2.69603 -0.561698
rclavicle -1.78184e-014 1.92573e-014
rhumerus -47.1164 21.6844 -98.602
rradius 66.5044
rwrist -9.56154
rhand -44.4769 18.062
rfingers 7.12502
rthumb -17.2803 -11.1898
lclavicle -1.78184e-014 1.92573e-014
lhumerus -24.2031 -21.9444 82.3397
lradius 110.174
lwrist 38.4336
lhand -22.4055 22.0853
lfingers 7.12502
lthumb 4.01725 52.0271
rfemur -2.80426 -37.167 23.5514
rtibia -1.59028e-014
rfoot -8.06806 6.73727
rtoes -4.80417
lfemur -22.2987 -2.24707 -14.5135
ltibia 17.5547
lfoot -5.08101 -22.4351
ltoes -18.426
